<?xml version="1.0" encoding="UTF-8" standalone="no"?>
<svg
   xmlns:dc="http://purl.org/dc/elements/1.1/"
   xmlns:cc="http://creativecommons.org/ns#"
   xmlns:rdf="http://www.w3.org/1999/02/22-rdf-syntax-ns#"
   xmlns:svg="http://www.w3.org/2000/svg"
   xmlns="http://www.w3.org/2000/svg"
   xmlns:xlink="http://www.w3.org/1999/xlink"
   xmlns:sodipodi="http://sodipodi.sourceforge.net/DTD/sodipodi-0.dtd"
   xmlns:inkscape="http://www.inkscape.org/namespaces/inkscape"
   enable-background="new"
   sodipodi:docname="shape.svg"
   inkscape:version="1.0beta1 (32d4812, 2019-09-19)"
   version="1.1"
   id="svg2"
   height="600"
   width="600">
  <defs
     id="defs4">
    <linearGradient
       x1="0"
       y1="0"
       x2="1"
       y2="0"
       gradientUnits="userSpaceOnUse"
       gradientTransform="matrix(32.367748,32.367748,32.367748,-32.367748,1197.2963,223.80884)"
       spreadMethod="pad"
       id="linearGradient1272">
      <stop
         style="stop-opacity:1;stop-color:#d0e8f8"
         offset="0"
         id="stop1268" />
      <stop
         style="stop-opacity:1;stop-color:#e2eef9"
         offset="1"
         id="stop1270" />
    </linearGradient>
    <linearGradient
       spreadMethod="pad"
       y2="0"
       x2="1"
       y1="0"
       x1="0"
       gradientTransform="matrix(15.5107,15.510962,15.5107,-15.510962,923.08635,480.45271)"
       gradientUnits="userSpaceOnUse"
       id="linearGradient1849"
       xlink:href="#linearGradient1252"
       inkscape:collect="always" />
    <linearGradient
       x1="0"
       y1="0"
       x2="1"
       y2="0"
       gradientUnits="userSpaceOnUse"
       gradientTransform="matrix(15.601304,15.601304,15.601304,-15.601304,1228.1082,248.9865)"
       spreadMethod="pad"
       id="linearGradient1252">
      <stop
         style="stop-opacity:1;stop-color:#00aeef"
         offset="0"
         id="stop1248" />
      <stop
         style="stop-opacity:1;stop-color:#00bdf2"
         offset="1"
         id="stop1250" />
    </linearGradient>
    <filter
       y="-0.25"
       x="-0.25"
       height="1.5"
       width="1.5"
       id="filter834-7"
       inkscape:label="Drop Shadow Normal"
       style="color-interpolation-filters:sRGB">
      <feFlood
         id="feFlood824-1"
         result="flood"
         flood-color="rgb(0,0,0)"
         flood-opacity="0.3" />
      <feComposite
         id="feComposite826-3"
         result="composite1"
         operator="in"
         in2="SourceGraphic"
         in="flood" />
      <feGaussianBlur
         id="feGaussianBlur828-8"
         result="blur"
         stdDeviation="1.5"
         in="composite1" />
      <feOffset
         id="feOffset830-4"
         result="offset"
         dy="-1.5"
         dx="1.5" />
      <feComposite
         id="feComposite832-8"
         result="composite2"
         operator="over"
         in2="offset"
         in="SourceGraphic" />
    </filter>
    <linearGradient
       inkscape:collect="always"
       xlink:href="#linearGradient2340"
       id="linearGradient11620"
       gradientUnits="userSpaceOnUse"
       gradientTransform="matrix(14.000168,0,0,13.999285,27.000482,79.67119)"
       x1="0"
       y1="0"
       x2="1"
       y2="0"
       spreadMethod="pad" />
    <linearGradient
       x1="0"
       y1="0"
       x2="1"
       y2="0"
       gradientUnits="userSpaceOnUse"
       gradientTransform="matrix(10.499464,0,0,-10.499464,584.0351,212.49661)"
       spreadMethod="pad"
       id="linearGradient2340">
      <stop
         style="stop-opacity:1;stop-color:#00aeef"
         offset="0"
         id="stop2336" />
      <stop
         style="stop-opacity:1;stop-color:#00bdf2"
         offset="1"
         id="stop2338" />
    </linearGradient>
    <filter
       style="color-interpolation-filters:sRGB"
       inkscape:label="Drop Shadow Rotated"
       id="filter848"
       width="1.5"
       height="1.5"
       x="-0.25"
       y="-0.25">
      <feFlood
         flood-opacity="0.3"
         flood-color="rgb(0,0,0)"
         result="flood"
         id="feFlood838" />
      <feComposite
         in="flood"
         in2="SourceGraphic"
         operator="in"
         result="composite1"
         id="feComposite840" />
      <feGaussianBlur
         in="composite1"
         stdDeviation="1.5"
         result="blur"
         id="feGaussianBlur842" />
      <feOffset
         dx="1"
         dy="1"
         result="offset"
         id="feOffset844" />
      <feComposite
         in="SourceGraphic"
         in2="offset"
         operator="over"
         result="composite2"
         id="feComposite846" />
    </filter>
    <linearGradient
       inkscape:collect="always"
       xlink:href="#linearGradient2380"
       id="linearGradient11624"
       gradientUnits="userSpaceOnUse"
       gradientTransform="matrix(13.333921,0,0,13.333921,70.999703,79.095018)"
       x1="0"
       y1="0"
       x2="1"
       y2="0"
       spreadMethod="pad" />
    <linearGradient
       x1="0"
       y1="0"
       x2="1"
       y2="0"
       gradientUnits="userSpaceOnUse"
       gradientTransform="matrix(10.000441,0,0,-10.000441,615.95648,212.92874)"
       spreadMethod="pad"
       id="linearGradient2380">
      <stop
         style="stop-opacity:1;stop-color:#00aeef"
         offset="0"
         id="stop2376" />
      <stop
         style="stop-opacity:1;stop-color:#00bdf2"
         offset="1"
         id="stop2378" />
    </linearGradient>
    <linearGradient
       inkscape:collect="always"
       xlink:href="#linearGradient2400"
       id="linearGradient11626"
       gradientUnits="userSpaceOnUse"
       gradientTransform="matrix(16.000588,0,0,16.000588,54.999871,81.40459)"
       x1="0"
       y1="0"
       x2="1"
       y2="0"
       spreadMethod="pad" />
    <linearGradient
       x1="0"
       y1="0"
       x2="1"
       y2="0"
       gradientUnits="userSpaceOnUse"
       gradientTransform="matrix(12.000441,0,0,-12.000441,604.06586,211.19656)"
       spreadMethod="pad"
       id="linearGradient2400">
      <stop
         style="stop-opacity:1;stop-color:#00aeef"
         offset="0"
         id="stop2396" />
      <stop
         style="stop-opacity:1;stop-color:#00bdf2"
         offset="1"
         id="stop2398" />
    </linearGradient>
    <linearGradient
       spreadMethod="pad"
       y2="0"
       x2="1"
       y1="0"
       x1="0"
       gradientTransform="matrix(32.55853,31.97866,32.55853,-31.97866,893.20189,457.1698)"
       gradientUnits="userSpaceOnUse"
       id="linearGradient1851"
       xlink:href="#linearGradient1272"
       inkscape:collect="always" />
    <linearGradient
       inkscape:collect="always"
       xlink:href="#linearGradient2360"
       id="linearGradient11622"
       gradientUnits="userSpaceOnUse"
       gradientTransform="matrix(18.667254,0,0,18.667254,37.000317,83.71383)"
       x1="0"
       y1="0"
       x2="1"
       y2="0"
       spreadMethod="pad" />
    <linearGradient
       x1="0"
       y1="0"
       x2="1"
       y2="0"
       gradientUnits="userSpaceOnUse"
       gradientTransform="matrix(14.000441,0,0,-14.000441,591.17523,209.46463)"
       spreadMethod="pad"
       id="linearGradient2360">
      <stop
         style="stop-opacity:1;stop-color:#00aeef"
         offset="0"
         id="stop2356" />
      <stop
         style="stop-opacity:1;stop-color:#00bdf2"
         offset="1"
         id="stop2358" />
    </linearGradient>
  </defs>
  <sodipodi:namedview
     inkscape:document-rotation="0"
     inkscape:window-maximized="0"
     inkscape:window-y="23"
     inkscape:window-x="0"
     inkscape:window-height="1035"
     inkscape:window-width="1920"
     showgrid="false"
     inkscape:current-layer="g1175"
     inkscape:document-units="px"
     inkscape:cy="298.5914"
     inkscape:cx="327.73066"
     inkscape:zoom="0.98666666"
     inkscape:pageshadow="2"
     inkscape:pageopacity="0.0"
     borderopacity="1.0"
     bordercolor="#666666"
     pagecolor="#ffffff"
     id="base">
    <inkscape:grid
       snapvisiblegridlinesonly="true"
       enabled="true"
       visible="true"
       empspacing="5"
       id="grid3900"
       type="xygrid" />
  </sodipodi:namedview>
  <metadata
     id="metadata7">
    <rdf:RDF>
      <cc:Work
         rdf:about="">
        <dc:format>image/svg+xml</dc:format>
        <dc:type
           rdf:resource="http://purl.org/dc/dcmitype/StillImage" />
        <dc:title></dc:title>
      </cc:Work>
    </rdf:RDF>
  </metadata>
  <g
     style="display:none"
     transform="translate(0,-452.36218)"
     id="layer1"
     inkscape:groupmode="layer"
     inkscape:label="bg">
    <path
       inkscape:connector-curvature="0"
       id="rect3004"
       d="m 0,454.63493 c 0,199.24241 0,398.48483 0,597.72727 200,0 400,0 600,0 0,-200.00002 0,-400.00001 0,-600 -200,0 -400,0 -600,0 l 0,1.13636 0,1.13637 z"
       style="fill:#6c7de1;fill-opacity:1;stroke:none" />
  </g>
  <g
     style="display:inline"
     inkscape:label="outer"
     inkscape:groupmode="layer"
     id="g3870"
     transform="translate(0,-452.36218)" />
  <g
     style="display:inline"
     transform="translate(0,-452.36218)"
     id="g3890"
     inkscape:groupmode="layer"
     inkscape:label="inner">
    <g
       transform="matrix(1.25,0,0,-1.25,-550.56718,2860.9736)"
       id="g1172" />
  </g>
  <g
     inkscape:label="glyph"
     id="layer2"
     inkscape:groupmode="layer">
    <g
       transform="matrix(3.7500007,0,0,3.7500007,-800.11847,-760.59146)"
       id="g681">
      <g
         transform="matrix(3.9772734,0,0,3.9772734,-1086.7526,-942.20873)"
         id="g1175">
        <path
           inkscape:connector-curvature="0"
           id="path1959"
           style="display:inline;opacity:1;fill:url(#linearGradient1849);stroke:none;stroke-width:0.994201;stop-opacity:1;filter:url(#filter834-7)"
           d="m 929.34061,504.66517 c -6.18984,-1.77665 -10.51259,-7.51225 -10.51259,-13.94876 v 0 c 0,-8.00736 6.51395,-14.52241 14.52217,-14.52241 v 0 c 6.43541,0 12.1719,4.32381 13.94852,10.51376 v 0 c 0.0765,0.26545 0,0.5508 -0.19287,0.74665 v 0 c -0.19586,0.19486 -0.48119,0.26843 -0.74664,0.19387 v 0 c -1.19005,-0.34101 -2.39799,-0.51401 -3.59003,-0.51401 v 0 c -7.16912,0 -13.00106,5.83204 -13.00106,13.00028 v 0 c 0,1.19604 0.17299,2.404 0.51301,3.59009 v 0 c 0.0775,0.26546 0,0.55179 -0.19188,0.74666 v 0 c -0.14515,0.14515 -0.33803,0.2227 -0.53786,0.2227 v 0 c -0.0696,0 -0.14117,-0.009 -0.21077,-0.0288"
           transform="matrix(0.35555548,0,0,-0.35555548,21.906562,475.66458)" />
        <path
           d="m 894.8573,487.26677 c -0.0845,9.8e-4 -0.16799,0.007 -0.25349,0.007 v 0 c -7.33196,0 -13.27579,-5.83897 -13.27579,-13.04034 v 0 c 0,-7.20138 5.94383,-13.03935 13.27579,-13.03935 v 0 h 32.99736 c 5.92572,0 10.72685,4.71661 10.72685,10.5358 v 0 c 0,5.81821 -4.80113,10.53482 -10.72685,10.53482 v 0 c -0.0362,0 -0.0724,-0.004 -0.10965,-0.004 v 0 c -0.95358,8.40078 -8.20508,14.9333 -17.01369,14.9333 v 0 c -6.95677,0 -12.93982,-4.0764 -15.62053,-9.92722"
           style="display:inline;opacity:1;fill:url(#linearGradient1851);stroke:none;stroke-width:0.996892;stop-opacity:1;filter:url(#filter834-7)"
           id="path1989"
           inkscape:connector-curvature="0"
           transform="matrix(0.35555548,0,0,-0.35555548,21.906562,475.66458)" />
        <path
           inkscape:connector-curvature="0"
           id="path1977"
           style="display:inline;opacity:1;fill:#ffffff;fill-opacity:1;fill-rule:nonzero;stroke:none;stroke-width:0.997426;stop-opacity:1;filter:url(#filter834-7)"
           d="m 940.55354,461.19424 c 3.74134,0 6.77447,2.94805 6.77447,6.58444 0,3.63739 -3.03313,6.58544 -6.77447,6.58544 -0.0233,0 -0.0455,-0.003 -0.0698,-0.004 -0.60298,5.25104 -5.18202,9.33387 -10.74547,9.33387 -4.39389,0 -8.17266,-2.54783 -9.86527,-6.20488 -0.0536,9.4e-4 -0.10623,0.004 -0.16086,0.004 -4.63064,0 -8.38412,-3.6482 -8.38412,-8.14895 0,-4.50174 3.75348,-8.14992 8.38412,-8.14992"
           transform="matrix(0.35555548,0,0,-0.35555548,21.906562,475.66458)" />
        <path
           d="m 36.023584,70.83467 -8.665879,15.008 c -0.736047,1.276 -0.300019,2.905333 0.976061,3.642666 v 0 c 0.420027,0.242667 0.878723,0.358667 1.330751,0.358667 v 0 c 0.921391,0 1.818781,-0.48 2.312146,-1.336 v 0 l 8.66588,-15.006666 c 0.736046,-1.276 0.298686,-2.906667 -0.974729,-3.642667 v 0 c -0.420026,-0.244 -0.878721,-0.358667 -1.332084,-0.358667 v 0 c -0.921391,0 -1.817448,0.478667 -2.312146,1.334667"
           style="display:inline;opacity:1;fill:url(#linearGradient11620);stroke:none;stroke-width:1.33337;stop-opacity:1;filter:url(#filter848)"
           id="path54335"
           inkscape:connector-curvature="0"
           transform="matrix(0.26666662,0,0,0.26666662,330.20091,293.68453)" />
        <path
           d="M 50.69201,70.83467 37.357344,93.929336 c -0.736,1.274667 -0.298667,2.905333 0.977333,3.642667 v 0 c 0.42,0.241333 0.877334,0.356 1.330667,0.356 v 0 c 0.921333,0 1.817333,-0.477334 2.310667,-1.333334 v 0 L 55.309344,73.501337 c 0.737333,-1.276 0.299999,-2.906667 -0.976,-3.642667 v 0 c -0.418667,-0.244 -0.877334,-0.358667 -1.330667,-0.358667 v 0 c -0.921333,0 -1.817333,0.478667 -2.310667,1.334667"
           style="display:inline;opacity:1;fill:url(#linearGradient11622);stroke:none;stroke-width:1.33333;stop-opacity:1;filter:url(#filter848)"
           id="path54345"
           inkscape:connector-curvature="0"
           transform="matrix(0.26666662,0,0,0.26666662,330.20091,293.68453)" />
        <path
           d="m 79.35773,70.834671 -8,13.856 c -0.736,1.274666 -0.3,2.905333 0.974666,3.642666 v 0 c 0.42,0.242667 0.878667,0.357334 1.330667,0.357334 v 0 c 0.922667,0 1.82,-0.478667 2.313333,-1.334667 v 0 l 8,-13.854666 c 0.736,-1.276 0.298667,-2.906667 -0.977333,-3.642667 v 0 c -0.42,-0.244 -0.878667,-0.358666 -1.330667,-0.358666 v 0 c -0.921333,0 -1.817333,0.478666 -2.310666,1.334666"
           style="display:inline;opacity:1;fill:url(#linearGradient11624);stroke:none;stroke-width:1.33333;stop-opacity:1;filter:url(#filter848)"
           id="path54355"
           inkscape:connector-curvature="0"
           transform="matrix(0.26666662,0,0,0.26666662,330.20091,293.68453)" />
        <path
           d="M 66.024057,70.83467 55.357391,89.309336 c -0.736,1.274667 -0.298667,2.906667 0.975999,3.642667 v 0 c 0.42,0.242666 0.877334,0.357333 1.332,0.357333 v 0 c 0.921334,0 1.817334,-0.478667 2.310667,-1.333333 v 0 L 70.642723,73.501337 c 0.737334,-1.276 0.3,-2.906667 -0.976,-3.642667 v 0 c -0.419999,-0.244 -0.878666,-0.358667 -1.330666,-0.358667 v 0 c -0.922667,0 -1.818667,0.478667 -2.312,1.334667"
           style="display:inline;opacity:1;fill:url(#linearGradient11626);stroke:none;stroke-width:1.33333;stop-opacity:1;filter:url(#filter848)"
           id="path54365"
           inkscape:connector-curvature="0"
           transform="matrix(0.26666662,0,0,0.26666662,330.20091,293.68453)" />
      </g>
    </g>
  </g>
</svg>
