<svg xmlns="http://www.w3.org/2000/svg" height="20" viewBox="0 0 20.0px 20.0px" width="20"><g transform="matrix(-.30556 0 0 -.30556 428.493 176.767)" filter="url(#filter888)"><path d="M1364.831 526.148h-10.07c-.834 0-1.51.732-1.51 1.636 0 .904.676 1.636 1.51 1.636h10.07c.835 0 1.51-.732 1.51-1.636 0-.904-.675-1.636-1.51-1.636M1387.614 526.148h-16.363a1.636 1.636 0 100 3.272h16.363a1.636 1.636 0 100-3.272M1374.666 532.693h-19.921c-.826 0-1.494.732-1.494 1.636 0 .905.668 1.637 1.494 1.637h19.92c.826 0 1.495-.732 1.495-1.637 0-.904-.669-1.636-1.494-1.636M1397.433 532.693h-16.364a1.636 1.636 0 100 3.273h16.364a1.636 1.636 0 100-3.273"/></g><path d="M3 10a7 7 0 0014 0 7 7 0 10-14 0"/></svg>