<svg xmlns="http://www.w3.org/2000/svg" height="20" viewBox="0 0 20.0px 20.0px" width="20"><g transform="matrix(-.30556 0 0 -.30556 428.493 176.767)" filter="url(#filter888)"><path d="M1364.831 526.148h-10.07c-.834 0-1.51.732-1.51 1.636 0 .904.676 1.636 1.51 1.636h10.07c.835 0 1.51-.732 1.51-1.636 0-.904-.675-1.636-1.51-1.636M1387.614 526.148h-16.363a1.636 1.636 0 100 3.272h16.363a1.636 1.636 0 100-3.272M1374.666 532.693h-19.921c-.826 0-1.494.732-1.494 1.636 0 .905.668 1.637 1.494 1.637h19.92c.826 0 1.495-.732 1.495-1.637 0-.904-.669-1.636-1.494-1.636M1397.433 532.693h-16.364a1.636 1.636 0 100 3.273h16.364a1.636 1.636 0 100-3.273"/></g><path d="M8.164 3.015A7.161 7.161 0 003 9.867C3 13.8 6.2 17 10.133 17a7.162 7.162 0 006.852-5.164.375.375 0 00-.462-.462 6.391 6.391 0 01-1.763.252A6.393 6.393 0 018.374 5.24c0-.587.086-1.18.252-1.763A.373.373 0 008.266 3h.001a.407.407 0 00-.103.014M18.291 2.316c-.114.421-.553.86-.975.975-.421.115-.421.303 0 .418.422.115.86.554.975.975.115.421.303.421.417 0 .115-.421.554-.86.976-.975.421-.115.421-.303 0-.418-.422-.115-.86-.554-.976-.975-.057-.21-.133-.316-.208-.316-.076 0-.151.105-.209.316M2.36 3.711c-.076.281-.368.574-.649.65-.281.076-.281.201 0 .278.28.077.573.369.65.65.076.281.202.281.278 0 .076-.281.369-.574.65-.65.281-.077.281-.202 0-.278a1.027 1.027 0 01-.65-.65c-.038-.14-.089-.211-.14-.211-.05 0-.1.07-.138.211"/><g><path d="M15.291 8.316c-.114.422-.553.86-.975.976-.421.114-.421.302 0 .416.422.115.86.554.975.976.115.421.303.421.418 0 .114-.422.553-.86.975-.976.421-.114.421-.302 0-.416-.422-.115-.86-.554-.975-.976C15.65 8.106 15.575 8 15.5 8c-.075 0-.151.105-.209.316M11.86 4.211a1.028 1.028 0 01-.65.65c-.28.076-.28.201 0 .278.282.076.574.369.65.65.077.281.203.281.279 0 .077-.281.37-.574.65-.65.281-.077.281-.202 0-.278a1.029 1.029 0 01-.65-.65C12.1 4.071 12.05 4 11.999 4c-.05 0-.1.07-.138.211"/></g></svg>