<svg xmlns="http://www.w3.org/2000/svg" width="20" height="20"><path d="M11.462 14h3.076c.256 0 .462-.224.462-.5s-.206-.5-.462-.5h-3.076c-.256 0-.462.224-.462.5s.206.5.462.5M4.5 14h5a.5.5 0 100-1h-5a.5.5 0 100 1M8.457 12h6.086c.253 0 .457-.224.457-.5s-.204-.5-.457-.5H8.457c-.253 0-.457.224-.457.5s.204.5.457.5M1.5 12h5a.5.5 0 100-1h-5a.5.5 0 100 1M11.462 10h3.076c.256 0 .462-.224.462-.5s-.206-.5-.462-.5h-3.076c-.256 0-.462.224-.462.5s.206.5.462.5M4.5 10h5a.5.5 0 100-1h-5a.5.5 0 100 1M8.457 8h6.086c.253 0 .457-.224.457-.5s-.204-.5-.457-.5H8.457C8.204 7 8 7.224 8 7.5s.204.5.457.5M1.5 8h5a.5.5 0 100-1h-5a.5.5 0 100 1M11.462 6h3.076c.256 0 .462-.224.462-.5s-.206-.5-.462-.5h-3.076c-.256 0-.462.224-.462.5s.206.5.462.5M4.5 6h5a.5.5 0 100-1h-5a.5.5 0 100 1M8.457 4h6.086c.253 0 .457-.224.457-.5s-.204-.5-.457-.5H8.457C8.204 3 8 3.224 8 3.5s.204.5.457.5M1.5 4h5a.5.5 0 100-1h-5a.5.5 0 100 1" filter="url(#filter888)"/></svg>