<svg xmlns="http://www.w3.org/2000/svg" width="20" viewBox="0 0 20.0px 20.0px" height="20"><sodipodi:namedview xmlns:sodipodi="http://sodipodi.sourceforge.net/DTD/sodipodi-0.dtd" xmlns:inkscape="http://www.inkscape.org/namespaces/inkscape" showguides="false" pagecolor="#ffffff" bordercolor="#666666" inkscape:document-rotation="0" borderopacity="1" objecttolerance="10" gridtolerance="10" guidetolerance="10" inkscape:pageopacity="0" inkscape:pageshadow="2" inkscape:window-width="1920" inkscape:window-height="1035" showgrid="false" inkscape:zoom="30" inkscape:cx="9.479" inkscape:cy="9.985" inkscape:window-x="0" inkscape:window-y="23" inkscape:window-maximized="0" inkscape:current-layer="storm" fit-margin-top="0" fit-margin-left="0" fit-margin-right="0" fit-margin-bottom="0"/><path d="M3 16a2 2 0 104 0 2 2 0 00-4 0" inkscape:connector-curvature="0" xmlns:inkscape="http://www.inkscape.org/namespaces/inkscape" xmlns:sodipodi="http://sodipodi.sourceforge.net/DTD/sodipodi-0.dtd" inkscape:groupmode="layer" inkscape:label="snow_light" sodipodi:insensitive="true"/><g><sodipodi:namedview xmlns:sodipodi="http://sodipodi.sourceforge.net/DTD/sodipodi-0.dtd" xmlns:inkscape="http://www.inkscape.org/namespaces/inkscape" showguides="false" pagecolor="#ffffff" bordercolor="#666666" inkscape:document-rotation="0" borderopacity="1" objecttolerance="10" gridtolerance="10" guidetolerance="10" inkscape:pageopacity="0" inkscape:pageshadow="2" inkscape:window-width="1920" inkscape:window-height="1035" showgrid="false" inkscape:zoom="30" inkscape:cx="9.479" inkscape:cy="9.985" inkscape:window-x="0" inkscape:window-y="23" inkscape:window-maximized="0" inkscape:current-layer="storm" fit-margin-top="0" fit-margin-left="0" fit-margin-right="0" fit-margin-bottom="0"/><rect width="1.5" height="5" x="9" y="14" ry=".625" xmlns:inkscape="http://www.inkscape.org/namespaces/inkscape" xmlns:sodipodi="http://sodipodi.sourceforge.net/DTD/sodipodi-0.dtd" inkscape:label="rain_light" inkscape:groupmode="layer" sodipodi:insensitive="true"/><g><sodipodi:namedview xmlns:sodipodi="http://sodipodi.sourceforge.net/DTD/sodipodi-0.dtd" xmlns:inkscape="http://www.inkscape.org/namespaces/inkscape" showguides="false" pagecolor="#ffffff" bordercolor="#666666" inkscape:document-rotation="0" borderopacity="1" objecttolerance="10" gridtolerance="10" guidetolerance="10" inkscape:pageopacity="0" inkscape:pageshadow="2" inkscape:window-width="1920" inkscape:window-height="1035" showgrid="false" inkscape:zoom="30" inkscape:cx="9.479" inkscape:cy="9.985" inkscape:window-x="0" inkscape:window-y="23" inkscape:window-maximized="0" inkscape:current-layer="storm" fit-margin-top="0" fit-margin-left="0" fit-margin-right="0" fit-margin-bottom="0"/><path d="M13.027 12.788l-.963 2.77c-.15.434-.028.759.273.722l.786-.095c.3-.038.429.293.285.733l-.874 2.674c-.144.44-.072.54.161.222l3.161-4.321c.233-.318.177-.558-.124-.532l-1.208.102c-.3.026-.424-.308-.273-.742l.531-1.53c.151-.434.028-.79-.274-.79l-.66-.001c-.3 0-.67.354-.821.788" inkscape:connector-curvature="0" xmlns:inkscape="http://www.inkscape.org/namespaces/inkscape" xmlns:sodipodi="http://sodipodi.sourceforge.net/DTD/sodipodi-0.dtd" inkscape:groupmode="layer" inkscape:label="storm" sodipodi:insensitive="true"/></g></g><g><sodipodi:namedview xmlns:sodipodi="http://sodipodi.sourceforge.net/DTD/sodipodi-0.dtd" xmlns:inkscape="http://www.inkscape.org/namespaces/inkscape" showguides="false" pagecolor="#ffffff" bordercolor="#666666" inkscape:document-rotation="0" borderopacity="1" objecttolerance="10" gridtolerance="10" guidetolerance="10" inkscape:pageopacity="0" inkscape:pageshadow="2" inkscape:window-width="1920" inkscape:window-height="1035" showgrid="false" inkscape:zoom="30" inkscape:cx="9.479" inkscape:cy="9.985" inkscape:window-x="0" inkscape:window-y="23" inkscape:window-maximized="0" inkscape:current-layer="storm" fit-margin-top="0" fit-margin-left="0" fit-margin-right="0" fit-margin-bottom="0"/><g xmlns:inkscape="http://www.inkscape.org/namespaces/inkscape" xmlns:sodipodi="http://sodipodi.sourceforge.net/DTD/sodipodi-0.dtd" inkscape:groupmode="layer" inkscape:label="fog_heavy" sodipodi:insensitive="true"><path inkscape:connector-curvature="0" d="M11.462 14h3.076c.256 0 .462-.224.462-.5s-.206-.5-.462-.5h-3.076c-.256 0-.462.224-.462.5s.206.5.462.5M4.5 14h5a.5.5 0 100-1h-5a.5.5 0 100 1M8.457 12h6.086c.253 0 .457-.224.457-.5s-.204-.5-.457-.5H8.457c-.253 0-.457.224-.457.5s.204.5.457.5M1.5 12h5a.5.5 0 100-1h-5a.5.5 0 100 1M11.462 10h3.076c.256 0 .462-.224.462-.5s-.206-.5-.462-.5h-3.076c-.256 0-.462.224-.462.5s.206.5.462.5M4.5 10h5a.5.5 0 100-1h-5a.5.5 0 100 1M8.457 8h6.086c.253 0 .457-.224.457-.5s-.204-.5-.457-.5H8.457C8.204 7 8 7.224 8 7.5s.204.5.457.5M1.5 8h5a.5.5 0 100-1h-5a.5.5 0 100 1M11.462 6h3.076c.256 0 .462-.224.462-.5s-.206-.5-.462-.5h-3.076c-.256 0-.462.224-.462.5s.206.5.462.5M4.5 6h5a.5.5 0 100-1h-5a.5.5 0 100 1M8.457 4h6.086c.253 0 .457-.224.457-.5s-.204-.5-.457-.5H8.457C8.204 3 8 3.224 8 3.5s.204.5.457.5M1.5 4h5a.5.5 0 100-1h-5a.5.5 0 100 1" filter="url(#filter888)"/></g></g></svg>