<svg xmlns="http://www.w3.org/2000/svg" width="20" viewBox="0 0 20.0px 20.0px" height="20"><defs><clipPath clipPathUnits="userSpaceOnUse" id="a"><path d="M886.464 1000501.1h-.04c-1.158 0-2.096-1-2.096-2.2 0-1.2.938-2.1 2.096-2.1h5.21c.936 0 1.694.7 1.694 1.7s-.758 1.8-1.694 1.8h-.017c-.15 1.4-1.296 2.5-2.687 2.5-1.098 0-2.043-.7-2.466-1.7" fill="#333" stroke-width=".258"/><path d="M886.464 502.102h-.04c-1.158 0-2.096-.972-2.096-2.173 0-1.2.938-2.172 2.096-2.172h5.21c.936 0 1.694.786 1.694 1.755 0 .97-.758 1.756-1.694 1.756h-.017c-.15 1.4-1.296 2.488-2.687 2.488-1.098 0-2.043-.679-2.466-1.654m-9.136-5.158v10.25h15.125v-10.25z" fill-rule="evenodd"/></clipPath></defs><path d="M11.611 9.93h-.05C10.148 9.93 9 11.064 9 12.465 9 13.865 10.147 15 11.562 15h6.368A2.06 2.06 0 0020 12.952a2.06 2.06 0 00-2.07-2.049l-.021.001C17.724 9.27 16.325 8 14.625 8a3.306 3.306 0 00-3.014 1.93"/><g><path transform="matrix(1.33333 0 0 -1.33333 -1171.104 678.925)" d="M888.983 497.944c1.364 0 2.47 1.08 2.47 2.414s-1.106 2.414-2.47 2.414h-.025c-.22 1.925-1.89 3.422-3.918 3.422a3.948 3.948 0 01-3.596-2.275l-.06.001c-1.687 0-3.056-1.338-3.056-2.988s1.369-2.988 3.057-2.988" clip-path="url(#a)"/></g></svg>