<svg xmlns="http://www.w3.org/2000/svg" width="20" viewBox="0 0 20.0px 20.0px" height="20"><defs><clipPath clipPathUnits="userSpaceOnUse" id="a"><path d="M886.553 1000501.1h-.042c-1.206 0-2.183-1-2.183-2.3 0-1.4.977-2.4 2.183-2.4h5.428c.974 0 1.764.8 1.764 1.9 0 1.1-.79 1.9-1.764 1.9h-.018c-.157 1.6-1.35 2.7-2.799 2.7-1.144 0-2.128-.7-2.569-1.8" fill="#333" stroke-width=".275"/><path d="M886.553 502.134h-.042c-1.206 0-2.183-1.063-2.183-2.376 0-1.312.977-2.377 2.183-2.377h5.428c.974 0 1.764.86 1.764 1.92 0 1.061-.79 1.921-1.764 1.921h-.018c-.157 1.53-1.35 2.722-2.799 2.722-1.144 0-2.128-.743-2.569-1.81m-6.975-6.69v12.5h12.5v-12.5z" fill-rule="evenodd"/></clipPath></defs><path d="M11.611 9.93h-.05C10.148 9.93 9 11.064 9 12.465 9 13.865 10.147 15 11.562 15h6.368A2.06 2.06 0 0020 12.952a2.06 2.06 0 00-2.07-2.049l-.021.001C17.724 9.27 16.325 8 14.625 8a3.306 3.306 0 00-3.014 1.93"/><g><path transform="matrix(1.33333 0 0 -1.33333 -1171.104 678.925)" d="M884.45 506.933a5.371 5.371 0 01-3.872-5.14c0-2.949 2.4-5.35 5.35-5.35a5.371 5.371 0 015.14 3.874.282.282 0 01-.347.347 4.794 4.794 0 00-1.323-.19 4.795 4.795 0 00-4.79 4.79c0 .44.065.885.19 1.322a.28.28 0 01-.27.358.306.306 0 01-.077-.01" clip-path="url(#a)"/></g><g><path d="M18.291 2.316c-.114.421-.553.86-.975.975-.421.115-.421.303 0 .418.422.115.86.554.975.975.115.421.303.421.417 0 .115-.421.554-.86.976-.975.421-.115.421-.303 0-.418-.422-.115-.86-.554-.976-.975-.057-.21-.133-.316-.208-.316-.076 0-.151.105-.209.316M2.36 3.711c-.076.281-.368.574-.649.65-.281.076-.281.201 0 .278.28.077.573.369.65.65.076.281.202.281.278 0 .076-.281.369-.574.65-.65.281-.077.281-.202 0-.278a1.027 1.027 0 01-.65-.65c-.038-.14-.089-.211-.14-.211-.05 0-.1.07-.138.211"/></g></svg>