<svg xmlns="http://www.w3.org/2000/svg" width="20" viewBox="0 0 20.0px 20.0px" height="20"><sodipodi:namedview xmlns:sodipodi="http://sodipodi.sourceforge.net/DTD/sodipodi-0.dtd" xmlns:inkscape="http://www.inkscape.org/namespaces/inkscape" showguides="false" pagecolor="#ffffff" bordercolor="#666666" inkscape:document-rotation="0" borderopacity="1" objecttolerance="10" gridtolerance="10" guidetolerance="10" inkscape:pageopacity="0" inkscape:pageshadow="2" inkscape:window-width="1920" inkscape:window-height="1035" showgrid="false" inkscape:zoom="30" inkscape:cx="9.479" inkscape:cy="9.985" inkscape:window-x="0" inkscape:window-y="23" inkscape:window-maximized="0" inkscape:current-layer="storm" fit-margin-top="0" fit-margin-left="0" fit-margin-right="0" fit-margin-bottom="0"/><g transform="matrix(-.30556 0 0 -.30556 428.493 174.767)" filter="url(#filter888)" xmlns:inkscape="http://www.inkscape.org/namespaces/inkscape" xmlns:sodipodi="http://sodipodi.sourceforge.net/DTD/sodipodi-0.dtd" inkscape:label="fog_light" inkscape:groupmode="layer" sodipodi:insensitive="true"><path d="M1364.831 526.148h-10.07c-.834 0-1.51.732-1.51 1.636 0 .904.676 1.636 1.51 1.636h10.07c.835 0 1.51-.732 1.51-1.636 0-.904-.675-1.636-1.51-1.636M1387.614 526.148h-16.363a1.636 1.636 0 100 3.272h16.363a1.636 1.636 0 100-3.272M1374.666 532.693h-19.921c-.826 0-1.494.732-1.494 1.636 0 .905.668 1.637 1.494 1.637h19.92c.826 0 1.495-.732 1.495-1.637 0-.904-.669-1.636-1.494-1.636M1397.433 532.693h-16.364a1.636 1.636 0 100 3.273h16.364a1.636 1.636 0 100-3.273" inkscape:connector-curvature="0"/></g><g><defs xmlns:inkscape="http://www.inkscape.org/namespaces/inkscape"><clipPath id="a" clipPathUnits="userSpaceOnUse"><path d="M886.553 1000501.1h-.042c-1.206 0-2.183-1-2.183-2.3 0-1.4.977-2.4 2.183-2.4h5.428c.974 0 1.764.8 1.764 1.9 0 1.1-.79 1.9-1.764 1.9h-.019c-.157 1.6-1.349 2.7-2.798 2.7-1.144 0-2.128-.7-2.569-1.8" inkscape:connector-curvature="0" fill="#333" stroke-width=".275"/><path d="M886.553 502.134h-.042c-1.206 0-2.183-1.063-2.183-2.376 0-1.312.977-2.376 2.183-2.376h5.428c.974 0 1.764.86 1.764 1.92s-.79 1.92-1.764 1.92h-.019c-.157 1.53-1.349 2.722-2.798 2.722-1.144 0-2.128-.743-2.569-1.81m-6.975-6.69v12.5h12.5v-12.5z" fill-rule="evenodd"/></clipPath></defs><sodipodi:namedview xmlns:sodipodi="http://sodipodi.sourceforge.net/DTD/sodipodi-0.dtd" xmlns:inkscape="http://www.inkscape.org/namespaces/inkscape" inkscape:current-layer="sun_big" inkscape:window-maximized="0" inkscape:window-y="23" inkscape:window-x="0" inkscape:cy="10" inkscape:cx="-1.14" inkscape:zoom="13.6" showgrid="false" inkscape:window-height="1035" inkscape:window-width="1920" inkscape:pageshadow="2" inkscape:pageopacity="0" guidetolerance="10" gridtolerance="10" objecttolerance="10" borderopacity="1" inkscape:document-rotation="0" bordercolor="#666666" pagecolor="#ffffff"/><g xmlns:sodipodi="http://sodipodi.sourceforge.net/DTD/sodipodi-0.dtd" xmlns:inkscape="http://www.inkscape.org/namespaces/inkscape" sodipodi:insensitive="true" inkscape:label="cloud_small_day" inkscape:groupmode="layer"><path inkscape:connector-curvature="0" d="M11.611 7.93h-.05C10.148 7.93 9 9.064 9 10.465 9 11.865 10.147 13 11.562 13h6.368A2.06 2.06 0 0020 10.952a2.06 2.06 0 00-2.07-2.049l-.021.001C17.724 7.27 16.325 6 14.625 6a3.306 3.306 0 00-3.014 1.93"/></g><path inkscape:original-d="m 880.57802,501.69375 c 0,-2.89925 2.35024,-5.24975 5.25,-5.24975 v 0 c 2.8995,0 5.25,2.3505 5.25,5.24975 v 0 c 0,2.89976 -2.3505,5.25025 -5.25,5.25025 v 0 c -2.89976,0 -5.25,-2.35049 -5.25,-5.25025" inkscape:path-effect="#path-effect986" clip-path="url(#a)" inkscape:connector-curvature="0" d="M880.578 501.694a5.25 5.25 0 0110.5 0 5.25 5.25 0 11-10.5 0" transform="matrix(1.33333 0 0 -1.33333 -1171.104 676.925)" xmlns:inkscape="http://www.inkscape.org/namespaces/inkscape" inkscape:label="sun_big" inkscape:groupmode="layer"/></g></svg>