<svg xmlns="http://www.w3.org/2000/svg" width="20" viewBox="0 0 20.0px 20.0px" height="20"><defs><clipPath clipPathUnits="userSpaceOnUse" id="a"><path d="M886.553 1000501.1h-.042c-1.206 0-2.183-1-2.183-2.3 0-1.4.977-2.4 2.183-2.4h5.428c.974 0 1.764.8 1.764 1.9 0 1.1-.79 1.9-1.764 1.9h-.019c-.157 1.6-1.349 2.7-2.798 2.7-1.144 0-2.128-.7-2.569-1.8" fill="#333" stroke-width=".275"/><path d="M886.553 502.134h-.042c-1.206 0-2.183-1.063-2.183-2.376 0-1.312.977-2.376 2.183-2.376h5.428c.974 0 1.764.86 1.764 1.92s-.79 1.92-1.764 1.92h-.019c-.157 1.53-1.349 2.722-2.798 2.722-1.144 0-2.128-.743-2.569-1.81m-6.975-6.69v12.5h12.5v-12.5z" fill-rule="evenodd"/></clipPath></defs><path d="M11.611 9.93h-.05C10.148 9.93 9 11.064 9 12.465 9 13.865 10.147 15 11.562 15h6.368A2.06 2.06 0 0020 12.952a2.06 2.06 0 00-2.07-2.049l-.021.001C17.724 9.27 16.325 8 14.625 8a3.306 3.306 0 00-3.014 1.93"/><g><path transform="matrix(1.33333 0 0 -1.33333 -1171.104 678.925)" d="M880.578 501.694a5.25 5.25 0 0110.5 0 5.25 5.25 0 11-10.5 0" clip-path="url(#a)"/></g></svg>