<svg xmlns="http://www.w3.org/2000/svg" width="20" viewBox="0 0 20.0px 20.0px" height="20"><sodipodi:namedview xmlns:sodipodi="http://sodipodi.sourceforge.net/DTD/sodipodi-0.dtd" xmlns:inkscape="http://www.inkscape.org/namespaces/inkscape" showguides="false" pagecolor="#ffffff" bordercolor="#666666" inkscape:document-rotation="0" borderopacity="1" objecttolerance="10" gridtolerance="10" guidetolerance="10" inkscape:pageopacity="0" inkscape:pageshadow="2" inkscape:window-width="1920" inkscape:window-height="1035" showgrid="false" inkscape:zoom="30" inkscape:cx="9.479" inkscape:cy="9.985" inkscape:window-x="0" inkscape:window-y="23" inkscape:window-maximized="0" inkscape:current-layer="storm" fit-margin-top="0" fit-margin-left="0" fit-margin-right="0" fit-margin-bottom="0"/><path d="M3 16a2 2 0 104 0 2 2 0 00-4 0" inkscape:connector-curvature="0" xmlns:inkscape="http://www.inkscape.org/namespaces/inkscape" xmlns:sodipodi="http://sodipodi.sourceforge.net/DTD/sodipodi-0.dtd" inkscape:groupmode="layer" inkscape:label="snow_light" sodipodi:insensitive="true"/><g><defs xmlns:inkscape="http://www.inkscape.org/namespaces/inkscape"><clipPath id="a" clipPathUnits="userSpaceOnUse"><path d="M886.553 1000501.1h-.042c-1.206 0-2.183-1-2.183-2.3 0-1.4.977-2.4 2.183-2.4h5.428c.974 0 1.764.8 1.764 1.9 0 1.1-.79 1.9-1.764 1.9h-.018c-.157 1.6-1.35 2.7-2.799 2.7-1.144 0-2.128-.7-2.569-1.8" inkscape:connector-curvature="0" fill="#333" stroke-width=".275"/><path d="M886.553 502.134h-.042c-1.206 0-2.183-1.063-2.183-2.376 0-1.312.977-2.377 2.183-2.377h5.428c.974 0 1.764.86 1.764 1.92 0 1.061-.79 1.921-1.764 1.921h-.018c-.157 1.53-1.35 2.722-2.799 2.722-1.144 0-2.128-.743-2.569-1.81m-6.975-6.69v12.5h12.5v-12.5z" fill-rule="evenodd"/></clipPath></defs><sodipodi:namedview xmlns:sodipodi="http://sodipodi.sourceforge.net/DTD/sodipodi-0.dtd" xmlns:inkscape="http://www.inkscape.org/namespaces/inkscape" inkscape:current-layer="moon_big" inkscape:window-maximized="0" inkscape:window-y="1103" inkscape:window-x="0" inkscape:cy="10" inkscape:cx=".846" inkscape:zoom="13.6" showgrid="false" inkscape:window-height="777" inkscape:window-width="1440" inkscape:pageshadow="2" inkscape:pageopacity="0" guidetolerance="10" gridtolerance="10" objecttolerance="10" borderopacity="1" inkscape:document-rotation="0" bordercolor="#666666" pagecolor="#ffffff"/><g xmlns:rdf="http://www.w3.org/1999/02/22-rdf-syntax-ns#" xmlns:cc="http://creativecommons.org/ns#" xmlns:dc="http://purl.org/dc/elements/1.1/" xmlns:sodipodi="http://sodipodi.sourceforge.net/DTD/sodipodi-0.dtd" xmlns:inkscape="http://www.inkscape.org/namespaces/inkscape"><sodipodi:namedview fit-margin-bottom="0" fit-margin-right="0" fit-margin-left="0" fit-margin-top="0" inkscape:current-layer="storm" inkscape:window-maximized="0" inkscape:window-y="23" inkscape:window-x="0" inkscape:cy="9.985" inkscape:cx="9.479" inkscape:zoom="30" showgrid="false" inkscape:window-height="1035" inkscape:window-width="1920" inkscape:pageshadow="2" inkscape:pageopacity="0" guidetolerance="10" gridtolerance="10" objecttolerance="10" borderopacity="1" inkscape:document-rotation="0" bordercolor="#666666" pagecolor="#ffffff" showguides="false"/><sodipodi:namedview fit-margin-bottom="0" fit-margin-right="0" fit-margin-left="0" fit-margin-top="0" inkscape:current-layer="storm" inkscape:window-maximized="0" inkscape:window-y="23" inkscape:window-x="0" inkscape:cy="9.985" inkscape:cx="9.479" inkscape:zoom="30" showgrid="false" inkscape:window-height="1035" inkscape:window-width="1920" inkscape:pageshadow="2" inkscape:pageopacity="0" guidetolerance="10" gridtolerance="10" objecttolerance="10" borderopacity="1" inkscape:document-rotation="0" bordercolor="#666666" pagecolor="#ffffff" showguides="false"/><sodipodi:namedview fit-margin-bottom="0" fit-margin-right="0" fit-margin-left="0" fit-margin-top="0" inkscape:current-layer="storm" inkscape:window-maximized="0" inkscape:window-y="23" inkscape:window-x="0" inkscape:cy="9.985" inkscape:cx="9.479" inkscape:zoom="30" showgrid="false" inkscape:window-height="1035" inkscape:window-width="1920" inkscape:pageshadow="2" inkscape:pageopacity="0" guidetolerance="10" gridtolerance="10" objecttolerance="10" borderopacity="1" inkscape:document-rotation="0" bordercolor="#666666" pagecolor="#ffffff" showguides="false"/></g><g xmlns:sodipodi="http://sodipodi.sourceforge.net/DTD/sodipodi-0.dtd" xmlns:inkscape="http://www.inkscape.org/namespaces/inkscape" sodipodi:insensitive="true" inkscape:groupmode="layer" inkscape:label="cloud_small_night"><path d="M11.611 7.93h-.05C10.148 7.93 9 9.064 9 10.465 9 11.865 10.147 13 11.562 13h6.368A2.06 2.06 0 0020 10.952a2.06 2.06 0 00-2.07-2.049l-.021.001C17.724 7.27 16.325 6 14.625 6a3.306 3.306 0 00-3.014 1.93" inkscape:connector-curvature="0"/></g><path inkscape:original-d="m 884.45092,506.93309 c -2.28023,-0.65435 -3.8729,-2.76782 -3.8729,-5.13924 v 0 c 0,-2.94986 2.4002,-5.34991 5.34999,-5.34991 v 0 c 2.37137,0 4.48433,1.5925 5.13912,3.87301 v 0 c 0.0281,0.0978 9.3e-4,0.2035 -0.0713,0.2755 v 0 c -0.0718,0.0718 -0.17697,0.0988 -0.27526,0.0713 v 0 c -0.43791,-0.12575 -0.88298,-0.1892 -1.3225,-0.1892 v 0 c -2.64085,0 -4.78934,2.14831 -4.78934,4.78923 v 0 c 0,0.44023 0.064,0.88531 0.18897,1.32253 v 0 c 0.0284,0.0978 9.2e-4,0.20351 -0.0711,0.27549 v 0 c -0.0533,0.0532 -0.12436,0.0822 -0.19819,0.0822 v 0 c -0.0256,0 -0.0517,-0.004 -0.0775,-0.0108" inkscape:path-effect="#path-effect1732" clip-path="url(#a)" inkscape:connector-curvature="0" d="M884.45 506.933a5.371 5.371 0 01-3.872-5.14c0-2.949 2.4-5.35 5.35-5.35a5.371 5.371 0 015.14 3.874.282.282 0 01-.347.347 4.794 4.794 0 00-1.323-.19 4.795 4.795 0 00-4.79 4.79c0 .44.065.885.19 1.322a.28.28 0 01-.27.358.306.306 0 01-.077-.01" transform="matrix(1.33333 0 0 -1.33333 -1171.104 676.925)" xmlns:sodipodi="http://sodipodi.sourceforge.net/DTD/sodipodi-0.dtd" xmlns:inkscape="http://www.inkscape.org/namespaces/inkscape" sodipodi:insensitive="true" inkscape:label="moon_big" inkscape:groupmode="layer"/><g xmlns:sodipodi="http://sodipodi.sourceforge.net/DTD/sodipodi-0.dtd" xmlns:inkscape="http://www.inkscape.org/namespaces/inkscape" sodipodi:insensitive="true" inkscape:groupmode="layer" inkscape:label="stars_small"><path d="M18.291.316c-.114.421-.553.86-.975.975-.421.115-.421.303 0 .418.422.115.86.554.975.975.115.421.303.421.417 0 .115-.421.554-.86.976-.975.421-.115.421-.303 0-.418-.422-.115-.86-.554-.976-.975C18.651.106 18.575 0 18.5 0c-.076 0-.151.105-.209.316M2.36 1.711c-.076.281-.368.574-.649.65-.281.076-.281.201 0 .278.28.077.573.369.65.65.076.281.202.281.278 0 .076-.281.369-.574.65-.65.281-.077.281-.202 0-.278a1.027 1.027 0 01-.65-.65c-.038-.14-.089-.211-.14-.211-.05 0-.1.07-.138.211" inkscape:connector-curvature="0"/></g></g></svg>