<svg xmlns="http://www.w3.org/2000/svg" width="20" viewBox="0 0 20.0px 20.0px" height="20"><defs><clipPath clipPathUnits="userSpaceOnUse" id="a"><path d="M886.464 1000501.1h-.04c-1.158 0-2.096-1-2.096-2.2 0-1.2.938-2.1 2.096-2.1h5.21c.936 0 1.694.7 1.694 1.7s-.758 1.8-1.694 1.8h-.017c-.15 1.4-1.296 2.5-2.687 2.5-1.098 0-2.043-.7-2.466-1.7" fill="#333" stroke-width=".258"/><path d="M886.464 502.102h-.04c-1.158 0-2.096-.972-2.096-2.173 0-1.2.938-2.172 2.096-2.172h5.21c.936 0 1.694.786 1.694 1.755 0 .97-.758 1.756-1.694 1.756h-.017c-.15 1.4-1.296 2.488-2.687 2.488-1.098 0-2.043-.679-2.466-1.654m-9.136-5.158v10.25h15.125v-10.25z" fill-rule="evenodd"/></clipPath><clipPath clipPathUnits="userSpaceOnUse" id="b"><path d="M885.79 1000505.6c-1.602 0-2.98-1-3.596-2.3h-.059c-1.688 0-3.057-1.3-3.057-3 0-1.6 1.369-3 3.057-3h7.598c.34 0 .662.1.957.2h1.46c.858 0 1.553.7 1.553 1.5 0 .9-.695 1.6-1.553 1.6h-.016c-.138 1.2-1.187 2.2-2.462 2.2-.032 0-.061 0-.093-.1a3.907 3.907 0 01-3.79 2.9z" fill="#333" stroke-width=".231"/><path d="M885.79 506.569a3.947 3.947 0 01-3.596-2.275h-.059c-1.688 0-3.057-1.337-3.057-2.988 0-1.65 1.369-2.988 3.057-2.988h7.598c.34 0 .662.067.957.188h1.46c.858 0 1.553.688 1.553 1.536 0 .849-.695 1.537-1.553 1.537l-.016-.001a2.47 2.47 0 01-2.462 2.178c-.032 0-.061-.006-.093-.007-.463 1.625-1.98 2.82-3.79 2.82zm-.212-6.625v8.75h8.75v-8.75z" fill-rule="evenodd"/></clipPath></defs><path d="M11.611 9.93h-.05C10.148 9.93 9 11.064 9 12.465 9 13.865 10.147 15 11.562 15h6.368A2.06 2.06 0 0020 12.952a2.06 2.06 0 00-2.07-2.049l-.021.001C17.724 9.27 16.325 8 14.625 8a3.306 3.306 0 00-3.014 1.93"/><g><path transform="matrix(1.33333 0 0 -1.33333 -1171.104 678.925)" d="M888.983 497.944c1.364 0 2.47 1.08 2.47 2.414s-1.106 2.414-2.47 2.414h-.025c-.22 1.925-1.89 3.422-3.918 3.422a3.948 3.948 0 01-3.596-2.275l-.06.001c-1.687 0-3.056-1.338-3.056-2.988s1.369-2.988 3.057-2.988" clip-path="url(#a)"/></g><g><path transform="matrix(1.33333 0 0 -1.33333 -1171.104 678.925)" d="M889.068 507.687a3.453 3.453 0 01-2.49-3.303 3.443 3.443 0 013.44-3.44 3.453 3.453 0 013.303 2.49.181.181 0 01-.223.223 3.087 3.087 0 00-.85-.122 3.083 3.083 0 00-3.079 3.08c0 .282.041.569.122.85a.18.18 0 01-.173.23v-.001a.172.172 0 01-.05-.007" clip-path="url(#b)"/></g></svg>