<svg xmlns="http://www.w3.org/2000/svg" width="20" viewBox="0 0 20.0px 20.0px" height="20"><sodipodi:namedview xmlns:sodipodi="http://sodipodi.sourceforge.net/DTD/sodipodi-0.dtd" xmlns:inkscape="http://www.inkscape.org/namespaces/inkscape" showguides="false" pagecolor="#ffffff" bordercolor="#666666" inkscape:document-rotation="0" borderopacity="1" objecttolerance="10" gridtolerance="10" guidetolerance="10" inkscape:pageopacity="0" inkscape:pageshadow="2" inkscape:window-width="1920" inkscape:window-height="1035" showgrid="false" inkscape:zoom="30" inkscape:cx="9.479" inkscape:cy="9.985" inkscape:window-x="0" inkscape:window-y="23" inkscape:window-maximized="0" inkscape:current-layer="storm" fit-margin-top="0" fit-margin-left="0" fit-margin-right="0" fit-margin-bottom="0"/><g xmlns:inkscape="http://www.inkscape.org/namespaces/inkscape" xmlns:sodipodi="http://sodipodi.sourceforge.net/DTD/sodipodi-0.dtd" inkscape:groupmode="layer" inkscape:label="fog_mod" sodipodi:insensitive="true"><path inkscape:connector-curvature="0" d="M11.462 14h3.076c.256 0 .462-.224.462-.5s-.206-.5-.462-.5h-3.076c-.256 0-.462.224-.462.5s.206.5.462.5M4.5 14h5a.5.5 0 100-1h-5a.5.5 0 100 1M8.457 12h6.086c.253 0 .457-.224.457-.5s-.204-.5-.457-.5H8.457c-.253 0-.457.224-.457.5s.204.5.457.5M1.5 12h5a.5.5 0 100-1h-5a.5.5 0 100 1M11.462 10h3.076c.256 0 .462-.224.462-.5s-.206-.5-.462-.5h-3.076c-.256 0-.462.224-.462.5s.206.5.462.5M4.5 10h5a.5.5 0 100-1h-5a.5.5 0 100 1M8.457 8h6.086c.253 0 .457-.224.457-.5s-.204-.5-.457-.5H8.457C8.204 7 8 7.224 8 7.5s.204.5.457.5M1.5 8h5a.5.5 0 100-1h-5a.5.5 0 100 1" filter="url(#filter888)"/></g><g><defs xmlns:inkscape="http://www.inkscape.org/namespaces/inkscape"><clipPath clipPathUnits="userSpaceOnUse" id="a"><path inkscape:connector-curvature="0" d="M886.464 1000501.1h-.04c-1.158 0-2.096-1-2.096-2.2 0-1.2.938-2.1 2.096-2.1h5.21c.936 0 1.694.7 1.694 1.7s-.758 1.8-1.694 1.8h-.017c-.15 1.4-1.296 2.5-2.687 2.5-1.098 0-2.043-.7-2.466-1.7" fill="#333" stroke-width=".258"/><path inkscape:connector-curvature="0" d="M886.464 502.102h-.04c-1.158 0-2.096-.972-2.096-2.173 0-1.2.938-2.172 2.096-2.172h5.21c.936 0 1.694.786 1.694 1.755 0 .97-.758 1.756-1.694 1.756h-.017c-.15 1.4-1.296 2.488-2.687 2.488-1.098 0-2.043-.679-2.466-1.654m-9.136-5.158v10.25h15.125v-10.25z" fill-rule="evenodd"/></clipPath><clipPath id="b" clipPathUnits="userSpaceOnUse"><path inkscape:connector-curvature="0" d="M885.79 1000505.6c-1.602 0-2.98-1-3.596-2.3h-.059c-1.688 0-3.057-1.3-3.057-3 0-1.6 1.369-3 3.057-3h7.598c.34 0 .662.1.957.2h1.46c.858 0 1.553.7 1.553 1.5 0 .9-.695 1.6-1.553 1.6h-.016c-.138 1.2-1.187 2.2-2.462 2.2-.032 0-.061 0-.093-.1a3.907 3.907 0 01-3.79 2.9z" fill="#333" stroke-width=".231"/><path d="M885.79 506.569a3.947 3.947 0 01-3.596-2.275h-.059c-1.688 0-3.057-1.337-3.057-2.988 0-1.65 1.369-2.988 3.057-2.988h7.598c.34 0 .662.067.957.188h1.46c.858 0 1.553.688 1.553 1.536 0 .849-.695 1.537-1.553 1.537l-.016-.001a2.47 2.47 0 01-2.462 2.178c-.032 0-.061-.006-.093-.007-.463 1.625-1.98 2.82-3.79 2.82zm-.962-7.375v8.75h8.75v-8.75z" fill-rule="evenodd"/></clipPath></defs><sodipodi:namedview xmlns:sodipodi="http://sodipodi.sourceforge.net/DTD/sodipodi-0.dtd" xmlns:inkscape="http://www.inkscape.org/namespaces/inkscape" inkscape:current-layer="sun_small" inkscape:window-maximized="0" inkscape:window-y="23" inkscape:window-x="0" inkscape:cy="5.142" inkscape:cx="5.404" inkscape:zoom="13.6" showgrid="false" inkscape:window-height="1035" inkscape:window-width="1920" inkscape:pageshadow="2" inkscape:pageopacity="0" guidetolerance="10" gridtolerance="10" objecttolerance="10" borderopacity="1" inkscape:document-rotation="0" bordercolor="#666666" pagecolor="#ffffff"/><g xmlns:rdf="http://www.w3.org/1999/02/22-rdf-syntax-ns#" xmlns:cc="http://creativecommons.org/ns#" xmlns:dc="http://purl.org/dc/elements/1.1/" xmlns:sodipodi="http://sodipodi.sourceforge.net/DTD/sodipodi-0.dtd" xmlns:inkscape="http://www.inkscape.org/namespaces/inkscape"><sodipodi:namedview fit-margin-bottom="0" fit-margin-right="0" fit-margin-left="0" fit-margin-top="0" inkscape:current-layer="storm" inkscape:window-maximized="0" inkscape:window-y="23" inkscape:window-x="0" inkscape:cy="9.985" inkscape:cx="9.479" inkscape:zoom="30" showgrid="false" inkscape:window-height="1035" inkscape:window-width="1920" inkscape:pageshadow="2" inkscape:pageopacity="0" guidetolerance="10" gridtolerance="10" objecttolerance="10" borderopacity="1" inkscape:document-rotation="0" bordercolor="#666666" pagecolor="#ffffff" showguides="false"/><sodipodi:namedview fit-margin-bottom="0" fit-margin-right="0" fit-margin-left="0" fit-margin-top="0" inkscape:current-layer="storm" inkscape:window-maximized="0" inkscape:window-y="23" inkscape:window-x="0" inkscape:cy="9.985" inkscape:cx="9.479" inkscape:zoom="30" showgrid="false" inkscape:window-height="1035" inkscape:window-width="1920" inkscape:pageshadow="2" inkscape:pageopacity="0" guidetolerance="10" gridtolerance="10" objecttolerance="10" borderopacity="1" inkscape:document-rotation="0" bordercolor="#666666" pagecolor="#ffffff" showguides="false"/><sodipodi:namedview fit-margin-bottom="0" fit-margin-right="0" fit-margin-left="0" fit-margin-top="0" inkscape:current-layer="storm" inkscape:window-maximized="0" inkscape:window-y="23" inkscape:window-x="0" inkscape:cy="9.985" inkscape:cx="9.479" inkscape:zoom="30" showgrid="false" inkscape:window-height="1035" inkscape:window-width="1920" inkscape:pageshadow="2" inkscape:pageopacity="0" guidetolerance="10" gridtolerance="10" objecttolerance="10" borderopacity="1" inkscape:document-rotation="0" bordercolor="#666666" pagecolor="#ffffff" showguides="false"/></g><g xmlns:sodipodi="http://sodipodi.sourceforge.net/DTD/sodipodi-0.dtd" xmlns:inkscape="http://www.inkscape.org/namespaces/inkscape" sodipodi:insensitive="true" inkscape:label="cloud_big_day" inkscape:groupmode="layer"><path transform="matrix(1.33333 0 0 -1.33333 -1171.104 676.925)" inkscape:connector-curvature="0" d="M888.983 497.944c1.364 0 2.47 1.08 2.47 2.414s-1.106 2.414-2.47 2.414h-.025c-.22 1.925-1.89 3.422-3.918 3.422a3.948 3.948 0 01-3.596-2.275l-.06.001c-1.687 0-3.056-1.338-3.056-2.988s1.369-2.988 3.057-2.988" clip-path="url(#a)" inkscape:path-effect="#path-effect924" inkscape:original-d="m 888.98305,497.94364 c 1.364,0 2.46997,1.08086 2.46997,2.41439 0,1.33353 -1.10597,2.41439 -2.46997,2.41439 -0.009,0 -0.0167,-0.001 -0.0252,-0.001 -0.2198,1.92535 -1.88953,3.42258 -3.91779,3.42258 -1.60163,0 -2.97953,-0.93415 -3.59656,-2.27493 -0.0197,2.3e-4 -0.0389,0.001 -0.0586,0.001 -1.68826,0 -3.05688,-1.33784 -3.05688,-2.98811 0,-1.65027 1.36862,-2.9881 3.05688,-2.9881"/></g><g xmlns:sodipodi="http://sodipodi.sourceforge.net/DTD/sodipodi-0.dtd" xmlns:inkscape="http://www.inkscape.org/namespaces/inkscape" sodipodi:insensitive="true" inkscape:label="cloud_small_day" inkscape:groupmode="layer"><path inkscape:connector-curvature="0" d="M11.611 7.93h-.05C10.148 7.93 9 9.064 9 10.465 9 11.865 10.147 13 11.562 13h6.368A2.06 2.06 0 0020 10.952a2.06 2.06 0 00-2.07-2.049l-.021.001C17.724 7.27 16.325 6 14.625 6a3.306 3.306 0 00-3.014 1.93"/></g><g xmlns:sodipodi="http://sodipodi.sourceforge.net/DTD/sodipodi-0.dtd" xmlns:inkscape="http://www.inkscape.org/namespaces/inkscape" sodipodi:insensitive="true" inkscape:groupmode="layer" inkscape:label="sun_small"><path inkscape:original-d="m 885.82802,503.56926 c 0,-1.86389 1.51131,-3.37526 3.37513,-3.37526 v 0 c 1.86382,0 3.37487,1.51137 3.37487,3.37526 v 0 c 0,1.8639 -1.51105,3.37474 -3.37487,3.37474 v 0 c -1.86382,0 -3.37513,-1.51084 -3.37513,-3.37474" inkscape:path-effect="#path-effect915" clip-path="url(#b)" d="M885.828 503.57a3.375 3.375 0 116.75 0 3.375 3.375 0 01-6.75 0" inkscape:connector-curvature="0" transform="matrix(1.33333 0 0 -1.33333 -1171.104 676.925)"/></g></g></svg>