<?xml version='1.0' encoding='ASCII' standalone='yes'?>
<svg xmlns="http://www.w3.org/2000/svg" xmlns:xlink="http://www.w3.org/1999/xlink" version="1.1" width="20.0px" viewBox="0 0 20.0px 20.0px" height="20.0px">
  <g>
    <g><metadata xmlns:rdf="http://www.w3.org/1999/02/22-rdf-syntax-ns#" xmlns:cc="http://creativecommons.org/ns#" xmlns:dc="http://purl.org/dc/elements/1.1/" id="metadata16">
    <rdf:RDF>
      <cc:Work rdf:about="">
        <dc:format>image/svg+xml</dc:format>

        <dc:type rdf:resource="http://purl.org/dc/dcmitype/StillImage"/>

        <dc:title/>

      </cc:Work>

    </rdf:RDF>

  </metadata>

  <defs id="defs14"/>

  <sodipodi:namedview xmlns:sodipodi="http://sodipodi.sourceforge.net/DTD/sodipodi-0.dtd" xmlns:inkscape="http://www.inkscape.org/namespaces/inkscape" showguides="false" pagecolor="#ffffff" bordercolor="#666666" inkscape:document-rotation="0" borderopacity="1" objecttolerance="10" gridtolerance="10" guidetolerance="10" inkscape:pageopacity="0" inkscape:pageshadow="2" inkscape:window-width="1920" inkscape:window-height="1035" id="namedview12" showgrid="false" inkscape:zoom="30" inkscape:cx="9.4787992" inkscape:cy="9.9849519" inkscape:window-x="0" inkscape:window-y="23" inkscape:window-maximized="0" inkscape:current-layer="storm" fit-margin-top="0" fit-margin-left="0" fit-margin-right="0" fit-margin-bottom="0"/>






<g xmlns:inkscape="http://www.inkscape.org/namespaces/inkscape" xmlns:sodipodi="http://sodipodi.sourceforge.net/DTD/sodipodi-0.dtd" style="display:inline" id="moon_big" inkscape:groupmode="layer" inkscape:label="moon_big" transform="matrix(1.3333333,0,0,-1.3333333,-1171.104,676.92531)" sodipodi:insensitive="true">
    <path d="m 884.45092,506.93309 c -2.28023,-0.65435 -3.8729,-2.76782 -3.8729,-5.13924 v 0 c 0,-2.94986 2.4002,-5.34991 5.34999,-5.34991 v 0 c 2.37137,0 4.48433,1.5925 5.13912,3.87301 v 0 c 0.0281,0.0978 9.3e-4,0.2035 -0.0713,0.2755 v 0 c -0.0718,0.0718 -0.17697,0.0988 -0.27526,0.0713 v 0 c -0.43791,-0.12575 -0.88298,-0.1892 -1.3225,-0.1892 v 0 c -2.64085,0 -4.78934,2.14831 -4.78934,4.78923 v 0 c 0,0.44023 0.064,0.88531 0.18897,1.32253 v 0 c 0.0284,0.0978 9.2e-4,0.20351 -0.0711,0.27549 v 0 c -0.0533,0.0532 -0.12436,0.0822 -0.19819,0.0822 v 0 c -0.0256,0 -0.0517,-0.004 -0.0775,-0.0108" style="opacity:1;fill:#000000;stroke:none;stroke-width:0.230725;stop-opacity:1" id="path31073" inkscape:connector-curvature="0"/>

  </g>






















</g>
    <g><g>
    <g><metadata xmlns:rdf="http://www.w3.org/1999/02/22-rdf-syntax-ns#" xmlns:cc="http://creativecommons.org/ns#" xmlns:dc="http://purl.org/dc/elements/1.1/" id="metadata16">
    <rdf:RDF>
      <cc:Work rdf:about="">
        <dc:format>image/svg+xml</dc:format>

        <dc:type rdf:resource="http://purl.org/dc/dcmitype/StillImage"/>

        <dc:title/>

      </cc:Work>

    </rdf:RDF>

  </metadata>

  <defs id="defs14"/>

  <sodipodi:namedview xmlns:sodipodi="http://sodipodi.sourceforge.net/DTD/sodipodi-0.dtd" xmlns:inkscape="http://www.inkscape.org/namespaces/inkscape" showguides="false" pagecolor="#ffffff" bordercolor="#666666" inkscape:document-rotation="0" borderopacity="1" objecttolerance="10" gridtolerance="10" guidetolerance="10" inkscape:pageopacity="0" inkscape:pageshadow="2" inkscape:window-width="1920" inkscape:window-height="1035" id="namedview12" showgrid="false" inkscape:zoom="30" inkscape:cx="9.4787992" inkscape:cy="9.9849519" inkscape:window-x="0" inkscape:window-y="23" inkscape:window-maximized="0" inkscape:current-layer="storm" fit-margin-top="0" fit-margin-left="0" fit-margin-right="0" fit-margin-bottom="0"/>



<g xmlns:inkscape="http://www.inkscape.org/namespaces/inkscape" xmlns:sodipodi="http://sodipodi.sourceforge.net/DTD/sodipodi-0.dtd" transform="matrix(1.3333333,0,0,-1.3333333,-1171.104,676.92531)" inkscape:label="stars_small" inkscape:groupmode="layer" id="stars_small" style="display:inline" sodipodi:insensitive="true">
    <path inkscape:connector-curvature="0" id="path1575" style="opacity:1;fill:#000000;stroke:none;stroke-width:0.314767;stop-opacity:1" d="m 892.04643,507.45698 c -0.0859,-0.31605 -0.41516,-0.64532 -0.73116,-0.73157 v 0 c -0.31633,-0.086 -0.31633,-0.22695 0,-0.3129 v 0 c 0.316,-0.0863 0.64523,-0.41552 0.73116,-0.73124 v 0 c 0.0863,-0.31636 0.22693,-0.31636 0.31286,0 v 0 c 0.0863,0.31572 0.41515,0.64499 0.73148,0.73124 v 0 c 0.31633,0.086 0.31633,0.22696 0,0.3129 v 0 c -0.31633,0.0863 -0.64523,0.41552 -0.73148,0.73157 v 0 c -0.0428,0.15802 -0.0997,0.23702 -0.15642,0.23702 v 0 c -0.0567,0 -0.11337,-0.0789 -0.15644,-0.23702"/>

<path inkscape:connector-curvature="0" id="path1585" style="opacity:1;fill:#000000;stroke:none;stroke-width:0.25906;stop-opacity:1" d="m 880.09871,506.41073 c -0.0575,-0.21086 -0.27696,-0.43028 -0.48732,-0.48753 v 0 c -0.21116,-0.0573 -0.21116,-0.15102 0,-0.20853 v 0 c 0.21036,-0.0573 0.4298,-0.27666 0.48732,-0.48752 v 0 c 0.0573,-0.21087 0.1513,-0.21087 0.20856,0 v 0 c 0.0573,0.21086 0.2767,0.43027 0.48758,0.48752 v 0 c 0.21089,0.0575 0.21089,0.15128 0,0.20853 v 0 c -0.21088,0.0573 -0.43033,0.27667 -0.48758,0.48753 v 0 c -0.0288,0.10538 -0.0666,0.15827 -0.1044,0.15827 v 0 c -0.0375,0 -0.0754,-0.0528 -0.10418,-0.15827"/>

  </g>

























</g>
    <g><metadata xmlns:rdf="http://www.w3.org/1999/02/22-rdf-syntax-ns#" xmlns:cc="http://creativecommons.org/ns#" xmlns:dc="http://purl.org/dc/elements/1.1/" id="metadata16">
    <rdf:RDF>
      <cc:Work rdf:about="">
        <dc:format>image/svg+xml</dc:format>

        <dc:type rdf:resource="http://purl.org/dc/dcmitype/StillImage"/>

        <dc:title/>

      </cc:Work>

    </rdf:RDF>

  </metadata>

  <defs id="defs14"/>

  <sodipodi:namedview xmlns:sodipodi="http://sodipodi.sourceforge.net/DTD/sodipodi-0.dtd" xmlns:inkscape="http://www.inkscape.org/namespaces/inkscape" showguides="false" pagecolor="#ffffff" bordercolor="#666666" inkscape:document-rotation="0" borderopacity="1" objecttolerance="10" gridtolerance="10" guidetolerance="10" inkscape:pageopacity="0" inkscape:pageshadow="2" inkscape:window-width="1920" inkscape:window-height="1035" id="namedview12" showgrid="false" inkscape:zoom="30" inkscape:cx="9.4787992" inkscape:cy="9.9849519" inkscape:window-x="0" inkscape:window-y="23" inkscape:window-maximized="0" inkscape:current-layer="storm" fit-margin-top="0" fit-margin-left="0" fit-margin-right="0" fit-margin-bottom="0"/>


<g xmlns:inkscape="http://www.inkscape.org/namespaces/inkscape" xmlns:sodipodi="http://sodipodi.sourceforge.net/DTD/sodipodi-0.dtd" transform="matrix(1.3333333,0,0,-1.3333333,-1171.104,676.92531)" inkscape:label="stars_big" inkscape:groupmode="layer" id="stars_big" style="display:inline" sodipodi:insensitive="true">
    <path inkscape:connector-curvature="0" id="path2431" style="opacity:1;fill:#000000;stroke:none;stroke-width:0.199123;stop-opacity:1" d="m 889.7966,502.95686 c -0.0861,-0.3164 -0.41539,-0.64554 -0.73142,-0.73155 v 0 c -0.31622,-0.0859 -0.31622,-0.2266 0,-0.31262 v 0 c 0.31603,-0.086 0.64539,-0.41535 0.73142,-0.73155 v 0 c 0.0861,-0.31619 0.22681,-0.31619 0.31283,0 v 0 c 0.0861,0.3162 0.4152,0.64554 0.73142,0.73155 v 0 c 0.31622,0.0861 0.31622,0.2268 0,0.31262 v 0 c -0.31622,0.086 -0.64539,0.41515 -0.73142,0.73155 v 0 c -0.043,0.15809 -0.0998,0.23714 -0.15631,0.23714 v 0 c -0.0567,0 -0.1135,-0.0791 -0.15652,-0.23714"/>

<path inkscape:connector-curvature="0" id="path2433" style="opacity:1;fill:#000000;stroke:none;stroke-width:0.227153;stop-opacity:1" d="m 887.22363,506.03569 c -0.0575,-0.21079 -0.27669,-0.42997 -0.4875,-0.48743 v 0 c -0.21081,-0.0573 -0.21081,-0.15105 0,-0.20852 v 0 c 0.21081,-0.0573 0.43003,-0.27665 0.4875,-0.48766 v 0 c 0.0573,-0.21077 0.1513,-0.21077 0.20855,0 v 0 c 0.0575,0.21101 0.27692,0.43043 0.48773,0.48766 v 0 c 0.21081,0.0575 0.21081,0.15128 0,0.20852 v 0 c -0.21081,0.0575 -0.43026,0.27664 -0.48773,0.48743 v 0 c -0.0286,0.1056 -0.0663,0.15831 -0.10429,0.15831 v 0 c -0.0378,0 -0.0756,-0.0527 -0.10429,-0.15831"/>

  </g>


























</g>
  </g>
</g>
  </g>
</svg>
