<?xml version="1.0" encoding="UTF-8" standalone="no"?>
<svg
   xmlns:dc="http://purl.org/dc/elements/1.1/"
   xmlns:cc="http://creativecommons.org/ns#"
   xmlns:rdf="http://www.w3.org/1999/02/22-rdf-syntax-ns#"
   xmlns:svg="http://www.w3.org/2000/svg"
   xmlns="http://www.w3.org/2000/svg"
   xmlns:sodipodi="http://sodipodi.sourceforge.net/DTD/sodipodi-0.dtd"
   xmlns:inkscape="http://www.inkscape.org/namespaces/inkscape"
   inkscape:version="1.0beta1 (32d4812, 2019-09-19)"
   sodipodi:docname="partCloudy_night.svg"
   id="svg1098"
   height="20.0px"
   viewBox="0 0 20.0px 20.0px"
   width="20.0px"
   version="1.1">
  <metadata
     id="metadata1104" />
  <defs
     id="defs1102">
    <inkscape:path-effect
       message="Use fill-rule evenodd on &lt;b&gt;fill and stroke&lt;/b&gt; dialog if no flatten result after convert clip to paths."
       is_inverse="true"
       hide_clip="false"
       flatten="false"
       inverse="true"
       uri="#clipPath1728"
       is_visible="true"
       id="path-effect1732"
       effect="powerclip" />
    <clipPath
       id="clipPath1728"
       clipPathUnits="userSpaceOnUse">
      <path
         d="m 886.55339,1000501.1 c -0.0139,0 -0.0276,0 -0.042,0 v 0 c -1.2059,0 -2.18337,-1 -2.18337,-2.3 v 0 c 0,-1.4 0.97747,-2.4 2.18337,-2.4 v 0 h 5.42746 c 0.9743,0 1.76417,0.8 1.76417,1.9 v 0 c 0,1.1 -0.78987,1.9 -1.76417,1.9 v 0 c -0.005,0 -0.0117,0 -0.0183,0 v 0 c -0.15702,1.6 -1.34948,2.7 -2.79856,2.7 v 0 c -1.14371,0 -2.12804,-0.7 -2.56882,-1.8"
         style="display:inline;opacity:1;fill:#333333;stroke:none;stroke-width:0.274888;stop-opacity:1"
         id="path1730"
         inkscape:connector-curvature="0" />
      <path
         d="m 886.55339,502.13403 c -0.0139,2.8e-4 -0.0276,8.4e-4 -0.042,8.4e-4 v 0 c -1.2059,1e-5 -2.18337,-1.06373 -2.18337,-2.37668 v 0 c 0,-1.31238 0.97747,-2.37669 2.18337,-2.37669 v 0 h 5.42746 c 0.9743,0 1.76417,0.85983 1.76417,1.92039 v 0 c 0,1.06059 -0.78987,1.92041 -1.76417,1.92041 v 0 c -0.005,0 -0.0117,-8.7e-4 -0.0183,-8.7e-4 v 0 c -0.15702,1.5315 -1.34948,2.72257 -2.79856,2.72257 v 0 c -1.14371,0 -2.12804,-0.74311 -2.56882,-1.80997 m -6.97515,-6.69009 V 507.944 h 12.5 v -12.50006 z"
         style="fill-rule:evenodd"
         id="lpe_path-effect1732" />
    </clipPath>
  </defs>
  <sodipodi:namedview
     inkscape:current-layer="moon_big"
     inkscape:window-maximized="0"
     inkscape:window-y="1103"
     inkscape:window-x="0"
     inkscape:cy="10"
     inkscape:cx="0.84558824"
     inkscape:zoom="13.6"
     showgrid="false"
     id="namedview1100"
     inkscape:window-height="777"
     inkscape:window-width="1440"
     inkscape:pageshadow="2"
     inkscape:pageopacity="0"
     guidetolerance="10"
     gridtolerance="10"
     objecttolerance="10"
     borderopacity="1"
     inkscape:document-rotation="0"
     bordercolor="#666666"
     pagecolor="#ffffff" />
  <g
     id="g1096">
    <g
       id="g1069">
      <metadata
         id="metadata16">
        <rdf:RDF>
          <cc:Work
             rdf:about="">
            <dc:format>image/svg+xml</dc:format>
            <dc:type
               rdf:resource="http://purl.org/dc/dcmitype/StillImage" />
            <dc:title />
          </cc:Work>
        </rdf:RDF>
      </metadata>
      <defs
         id="defs14" />
      <sodipodi:namedview
         fit-margin-bottom="0"
         fit-margin-right="0"
         fit-margin-left="0"
         fit-margin-top="0"
         inkscape:current-layer="storm"
         inkscape:window-maximized="0"
         inkscape:window-y="23"
         inkscape:window-x="0"
         inkscape:cy="9.9849519"
         inkscape:cx="9.4787992"
         inkscape:zoom="30"
         showgrid="false"
         id="namedview12"
         inkscape:window-height="1035"
         inkscape:window-width="1920"
         inkscape:pageshadow="2"
         inkscape:pageopacity="0"
         guidetolerance="10"
         gridtolerance="10"
         objecttolerance="10"
         borderopacity="1"
         inkscape:document-rotation="0"
         bordercolor="#666666"
         pagecolor="#ffffff"
         showguides="false" />
    </g>
    <g
       id="g1094">
      <g
         id="g1092">
        <g
           id="g1079">
          <metadata
             id="metadata1071">
            <rdf:RDF>
              <cc:Work
                 rdf:about="">
                <dc:format>image/svg+xml</dc:format>
                <dc:type
                   rdf:resource="http://purl.org/dc/dcmitype/StillImage" />
                <dc:title />
              </cc:Work>
            </rdf:RDF>
          </metadata>
          <defs
             id="defs1073" />
          <sodipodi:namedview
             fit-margin-bottom="0"
             fit-margin-right="0"
             fit-margin-left="0"
             fit-margin-top="0"
             inkscape:current-layer="storm"
             inkscape:window-maximized="0"
             inkscape:window-y="23"
             inkscape:window-x="0"
             inkscape:cy="9.9849519"
             inkscape:cx="9.4787992"
             inkscape:zoom="30"
             showgrid="false"
             id="namedview1075"
             inkscape:window-height="1035"
             inkscape:window-width="1920"
             inkscape:pageshadow="2"
             inkscape:pageopacity="0"
             guidetolerance="10"
             gridtolerance="10"
             objecttolerance="10"
             borderopacity="1"
             inkscape:document-rotation="0"
             bordercolor="#666666"
             pagecolor="#ffffff"
             showguides="false" />
        </g>
        <g
           id="g1090">
          <metadata
             id="metadata1081">
            <rdf:RDF>
              <cc:Work
                 rdf:about="">
                <dc:format>image/svg+xml</dc:format>
                <dc:type
                   rdf:resource="http://purl.org/dc/dcmitype/StillImage" />
                <dc:title />
              </cc:Work>
            </rdf:RDF>
          </metadata>
          <defs
             id="defs1083" />
          <sodipodi:namedview
             fit-margin-bottom="0"
             fit-margin-right="0"
             fit-margin-left="0"
             fit-margin-top="0"
             inkscape:current-layer="storm"
             inkscape:window-maximized="0"
             inkscape:window-y="23"
             inkscape:window-x="0"
             inkscape:cy="9.9849519"
             inkscape:cx="9.4787992"
             inkscape:zoom="30"
             showgrid="false"
             id="namedview1085"
             inkscape:window-height="1035"
             inkscape:window-width="1920"
             inkscape:pageshadow="2"
             inkscape:pageopacity="0"
             guidetolerance="10"
             gridtolerance="10"
             objecttolerance="10"
             borderopacity="1"
             inkscape:document-rotation="0"
             bordercolor="#666666"
             pagecolor="#ffffff"
             showguides="false" />
        </g>
      </g>
    </g>
  </g>
  <g
     sodipodi:insensitive="true"
     style="display:inline"
     id="cloud_small_night"
     inkscape:groupmode="layer"
     inkscape:label="cloud_small_night"
     transform="matrix(1.3333333,0,0,-1.3333333,-1171.104,676.92531)">
    <path
       d="m 887.03628,501.74602 c -0.0123,2.2e-4 -0.0243,6.9e-4 -0.0369,6.9e-4 v 0 c -1.06119,0 -1.92136,-0.85099 -1.92136,-1.90135 v 0 c 0,-1.04991 0.86017,-1.90136 1.92136,-1.90136 v 0 h 4.77616 c 0.85739,0 1.55248,0.68786 1.55248,1.53632 v 0 c 0,0.84847 -0.69509,1.53632 -1.55248,1.53632 v 0 c -0.005,0 -0.0104,-7e-4 -0.016,-7e-4 v 0 c -0.13818,1.2252 -1.18754,2.17806 -2.46273,2.17806 v 0 c -1.00647,0 -1.87267,-0.59448 -2.26056,-1.44798"
       style="opacity:1;fill:#000000;stroke:none;stroke-width:0.230642;stop-opacity:1"
       id="path985"
       inkscape:connector-curvature="0" />
    <g
       style="opacity:1;stop-opacity:1"
       id="g993"
       transform="translate(-1.5277242,230.37199)">
      <g
         id="g991">
        <g
           id="g989">
          <g
             id="g987" />
        </g>
      </g>
    </g>
  </g>
  <g
     sodipodi:insensitive="true"
     transform="matrix(1.3333333,0,0,-1.3333333,-1171.104,676.92531)"
     inkscape:label="moon_big"
     inkscape:groupmode="layer"
     id="moon_big"
     style="display:inline">
    <path
       inkscape:original-d="m 884.45092,506.93309 c -2.28023,-0.65435 -3.8729,-2.76782 -3.8729,-5.13924 v 0 c 0,-2.94986 2.4002,-5.34991 5.34999,-5.34991 v 0 c 2.37137,0 4.48433,1.5925 5.13912,3.87301 v 0 c 0.0281,0.0978 9.3e-4,0.2035 -0.0713,0.2755 v 0 c -0.0718,0.0718 -0.17697,0.0988 -0.27526,0.0713 v 0 c -0.43791,-0.12575 -0.88298,-0.1892 -1.3225,-0.1892 v 0 c -2.64085,0 -4.78934,2.14831 -4.78934,4.78923 v 0 c 0,0.44023 0.064,0.88531 0.18897,1.32253 v 0 c 0.0284,0.0978 9.2e-4,0.20351 -0.0711,0.27549 v 0 c -0.0533,0.0532 -0.12436,0.0822 -0.19819,0.0822 v 0 c -0.0256,0 -0.0517,-0.004 -0.0775,-0.0108"
       inkscape:path-effect="#path-effect1732"
       clip-path="url(#clipPath1728)"
       inkscape:connector-curvature="0"
       id="path31073"
       style="opacity:1;fill:#000000;stroke:none;stroke-width:0.230725;stop-opacity:1"
       d="m 884.45092,506.93309 c -2.28023,-0.65435 -3.8729,-2.76782 -3.8729,-5.13924 v 0 c 0,-2.94986 2.4002,-5.34991 5.34999,-5.34991 v 0 c 2.37137,0 4.48433,1.5925 5.13912,3.87301 v 0 c 0.0281,0.0978 9.3e-4,0.2035 -0.0713,0.2755 v 0 c -0.0718,0.0718 -0.17697,0.0988 -0.27526,0.0713 v 0 c -0.43791,-0.12575 -0.88298,-0.1892 -1.3225,-0.1892 v 0 c -2.64085,0 -4.78934,2.14831 -4.78934,4.78923 v 0 c 0,0.44023 0.064,0.88531 0.18897,1.32253 v 0 c 0.0284,0.0978 9.2e-4,0.20351 -0.0711,0.27549 v 0 c -0.0533,0.0532 -0.12436,0.0822 -0.19819,0.0822 v 0 c -0.0256,0 -0.0517,-0.004 -0.0775,-0.0108" />
  </g>
  <g
     sodipodi:insensitive="true"
     style="display:inline"
     id="stars_small"
     inkscape:groupmode="layer"
     inkscape:label="stars_small"
     transform="matrix(1.3333333,0,0,-1.3333333,-1171.104,676.92531)">
    <path
       d="m 892.04643,507.45698 c -0.0859,-0.31605 -0.41516,-0.64532 -0.73116,-0.73157 v 0 c -0.31633,-0.086 -0.31633,-0.22695 0,-0.3129 v 0 c 0.316,-0.0863 0.64523,-0.41552 0.73116,-0.73124 v 0 c 0.0863,-0.31636 0.22693,-0.31636 0.31286,0 v 0 c 0.0863,0.31572 0.41515,0.64499 0.73148,0.73124 v 0 c 0.31633,0.086 0.31633,0.22696 0,0.3129 v 0 c -0.31633,0.0863 -0.64523,0.41552 -0.73148,0.73157 v 0 c -0.0428,0.15802 -0.0997,0.23702 -0.15642,0.23702 v 0 c -0.0567,0 -0.11337,-0.0789 -0.15644,-0.23702"
       style="opacity:1;fill:#000000;stroke:none;stroke-width:0.314767;stop-opacity:1"
       id="path1575"
       inkscape:connector-curvature="0" />
    <path
       d="m 880.09871,506.41073 c -0.0575,-0.21086 -0.27696,-0.43028 -0.48732,-0.48753 v 0 c -0.21116,-0.0573 -0.21116,-0.15102 0,-0.20853 v 0 c 0.21036,-0.0573 0.4298,-0.27666 0.48732,-0.48752 v 0 c 0.0573,-0.21087 0.1513,-0.21087 0.20856,0 v 0 c 0.0573,0.21086 0.2767,0.43027 0.48758,0.48752 v 0 c 0.21089,0.0575 0.21089,0.15128 0,0.20853 v 0 c -0.21088,0.0573 -0.43033,0.27667 -0.48758,0.48753 v 0 c -0.0288,0.10538 -0.0666,0.15827 -0.1044,0.15827 v 0 c -0.0375,0 -0.0754,-0.0528 -0.10418,-0.15827"
       style="opacity:1;fill:#000000;stroke:none;stroke-width:0.25906;stop-opacity:1"
       id="path1585"
       inkscape:connector-curvature="0" />
  </g>
</svg>
