<?xml version="1.0" encoding="UTF-8" standalone="no"?>
<svg
   xmlns:svg="http://www.w3.org/2000/svg"
   xmlns="http://www.w3.org/2000/svg"
   xmlns:sodipodi="http://sodipodi.sourceforge.net/DTD/sodipodi-0.dtd"
   xmlns:inkscape="http://www.inkscape.org/namespaces/inkscape"
   inkscape:version="1.0beta1 (32d4812, 2019-09-19)"
   sodipodi:docname="partCloudy_day.svg"
   id="svg1847"
   height="20.0px"
   viewBox="0 0 20.0px 20.0px"
   width="20.0px"
   version="1.1">
  <metadata
     id="metadata1853" />
  <defs
     id="defs1851">
    <inkscape:path-effect
       message="Use fill-rule evenodd on &lt;b&gt;fill and stroke&lt;/b&gt; dialog if no flatten result after convert clip to paths."
       is_inverse="true"
       hide_clip="false"
       flatten="false"
       inverse="true"
       uri="#clipPath982"
       is_visible="true"
       id="path-effect986"
       effect="powerclip" />
    <inkscape:path-effect
       message="Use fill-rule evenodd on &lt;b&gt;fill and stroke&lt;/b&gt; dialog if no flatten result after convert clip to paths."
       is_inverse="false"
       hide_clip="false"
       flatten="false"
       inverse="false"
       uri="false"
       is_visible="true"
       id="path-effect2529"
       effect="powerclip" />
    <clipPath
       id="clipPath982"
       clipPathUnits="userSpaceOnUse">
      <path
         d="m 886.55331,1000501.1 c -0.0139,0 -0.0276,0 -0.042,0 v 0 c -1.2059,0 -2.18337,-1 -2.18337,-2.3 v 0 c 0,-1.4 0.97747,-2.4 2.18337,-2.4 v 0 h 5.42746 c 0.9743,0 1.76417,0.8 1.76417,1.9 v 0 c 0,1.1 -0.78987,1.9 -1.76417,1.9 v 0 c -0.005,0 -0.0117,0 -0.0183,0 v 0 c -0.15702,1.6 -1.34948,2.7 -2.79856,2.7 v 0 c -1.14371,0 -2.12804,-0.7 -2.56882,-1.8"
         style="display:inline;opacity:1;fill:#333333;stroke:none;stroke-width:0.274888;stop-opacity:1"
         id="path984"
         inkscape:connector-curvature="0" />
      <path
         d="m 886.55331,502.13403 c -0.0139,2.8e-4 -0.0276,8.5e-4 -0.042,8.5e-4 v 0 c -1.2059,0 -2.18337,-1.06374 -2.18337,-2.37669 v 0 c 0,-1.31237 0.97747,-2.37669 2.18337,-2.37669 v 0 h 5.42746 c 0.9743,0 1.76417,0.85983 1.76417,1.92039 v 0 c 0,1.06059 -0.78987,1.92041 -1.76417,1.92041 v 0 c -0.005,0 -0.0117,-8.7e-4 -0.0183,-8.7e-4 v 0 c -0.15702,1.5315 -1.34948,2.72257 -2.79856,2.72257 v 0 c -1.14371,0 -2.12804,-0.74311 -2.56882,-1.80997 m -6.97507,-6.69003 v 12.5 h 12.5 v -12.5 z"
         style="fill-rule:evenodd"
         id="lpe_path-effect986" />
    </clipPath>
  </defs>
  <sodipodi:namedview
     inkscape:current-layer="sun_big"
     inkscape:window-maximized="0"
     inkscape:window-y="23"
     inkscape:window-x="0"
     inkscape:cy="10"
     inkscape:cx="-1.1397059"
     inkscape:zoom="13.6"
     showgrid="false"
     id="namedview1849"
     inkscape:window-height="1035"
     inkscape:window-width="1920"
     inkscape:pageshadow="2"
     inkscape:pageopacity="0"
     guidetolerance="10"
     gridtolerance="10"
     objecttolerance="10"
     borderopacity="1"
     inkscape:document-rotation="0"
     bordercolor="#666666"
     pagecolor="#ffffff" />
  <g
     sodipodi:insensitive="true"
     transform="matrix(1.3333333,0,0,-1.3333333,-1171.104,676.92531)"
     inkscape:label="cloud_small_day"
     inkscape:groupmode="layer"
     id="cloud_small_day"
     style="display:inline">
    <path
       inkscape:connector-curvature="0"
       id="path2317"
       style="opacity:1;fill:#000000;stroke:none;stroke-width:0.230642;stop-opacity:1"
       d="m 887.03628,501.74602 c -0.0123,2.2e-4 -0.0243,6.9e-4 -0.0369,6.9e-4 v 0 c -1.06119,0 -1.92136,-0.85099 -1.92136,-1.90135 v 0 c 0,-1.04991 0.86017,-1.90136 1.92136,-1.90136 v 0 h 4.77616 c 0.85739,0 1.55248,0.68786 1.55248,1.53632 v 0 c 0,0.84847 -0.69509,1.53632 -1.55248,1.53632 v 0 c -0.005,0 -0.0104,-7e-4 -0.016,-7e-4 v 0 c -0.13818,1.2252 -1.18754,2.17806 -2.46273,2.17806 v 0 c -1.00647,0 -1.87267,-0.59448 -2.26056,-1.44798" />
    <g
       transform="translate(-1.5277242,230.37199)"
       id="g2325"
       style="opacity:1;stop-opacity:1">
      <g
         id="g2323">
        <g
           id="g2321">
          <g
             id="g2319" />
        </g>
      </g>
    </g>
  </g>
  <g
     transform="matrix(1.3333333,0,0,-1.3333333,-1171.104,676.92531)"
     inkscape:label="sun_big"
     inkscape:groupmode="layer"
     id="sun_big"
     style="display:inline">
    <path
       inkscape:original-d="m 880.57802,501.69375 c 0,-2.89925 2.35024,-5.24975 5.25,-5.24975 v 0 c 2.8995,0 5.25,2.3505 5.25,5.24975 v 0 c 0,2.89976 -2.3505,5.25025 -5.25,5.25025 v 0 c -2.89976,0 -5.25,-2.35049 -5.25,-5.25025"
       inkscape:path-effect="#path-effect986"
       clip-path="url(#clipPath982)"
       inkscape:connector-curvature="0"
       id="path21669"
       style="opacity:1;fill:#000000;stroke:none;stroke-width:0.256661;stop-opacity:1"
       d="m 880.57802,501.69375 c 0,-2.89925 2.35024,-5.24975 5.25,-5.24975 v 0 c 2.8995,0 5.25,2.3505 5.25,5.24975 v 0 c 0,2.89976 -2.3505,5.25025 -5.25,5.25025 v 0 c -2.89976,0 -5.25,-2.35049 -5.25,-5.25025" />
  </g>
</svg>
